<?xml version="1.0" standalone="no"?><!DOCTYPE svg PUBLIC "-//W3C//DTD SVG 1.1//EN" "http://www.w3.org/Graphics/SVG/1.1/DTD/svg11.dtd"><svg xmlns:xlink="http://www.w3.org/1999/xlink" xmlns="http://www.w3.org/2000/svg" version="1.1" width="200" height="200" viewBox="0 0 200 200"><defs><style type="text/css"><![CDATA[
@font-face {
  font-family: "ifont";
  src: url("//at.alicdn.com/t/font_1442373896_4754455.eot?#iefix") format("embedded-opentype"), url("//at.alicdn.com/t/font_1442373896_4754455.woff") format("woff"), url("//at.alicdn.com/t/font_1442373896_4754455.ttf") format("truetype"), url("//at.alicdn.com/t/font_1442373896_4754455.svg#ifont") format("svg");
}

]]></style></defs><g class="transform-group"><g transform="scale(0.1953125, 0.1953125)"><path d="M941.797301 495.847112c-8.664334-10.609639-214.94342-259.979126-429.529707-260.436544-213.851553 0-420.836721 248.068865-429.54301 258.635525l-14.275121 17.300015 14.208607 17.003256c8.66331 10.611685 214.100216 260.240069 428.132894 260.240069 226.426963 0 421.305395-247.672846 430.015777-258.238482l14.743796-17.228383L941.797301 495.847112zM524.744767 676.833139c-42.759873 0-81.96478-18.499329-112.134917-48.900733-30.151717-30.344099-46.708811-71.906703-46.613644-114.737184 0.189312-88.262206 72.010057-160.691819 160.101371-160.691819 88.590688 0.204661 159.313425 73.240071 159.14151 161.682379C685.052846 602.457198 607.832114 676.833139 524.744767 676.833139zM526.300192 407.278937c-57.812707 0-104.791671 47.00864-104.912421 104.796788-0.068562 28.066219 10.776438 54.470589 30.521131 74.351382 19.654642 19.786649 44.856627 30.715559 72.674183 30.851659 55.269791-0.191358 105.156992-47.089481 105.264439-104.771205C629.9826 454.621175 584.016709 407.398664 526.300192 407.278937z" fill="#272636"></path></g></g></svg>